 <svg version="1.0" xmlns="http://www.w3.org/2000/svg" width="700.000000pt" height="616.000000pt" viewBox="0 0 700.000000 616.000000" preserveAspectRatio="xMidYMid meet">
<metadata>
Created by potrace 1.12, written by Peter Selinger 2001-2015
</metadata>
<g transform="translate(0.000000,616.000000) scale(0.100000,-0.100000)" fill="#000000" stroke="none">
<path d="M1180 5593 c-79 -41 -310 -340 -398 -518 -289 -582 -248 -1294 105
-1830 122 -185 250 -321 436 -461 109 -83 144 -93 173 -49 15 24 14 31 -20
142 -60 194 -76 296 -83 510 -6 211 3 318 43 502 66 296 199 568 393 801 39
47 83 100 98 119 l28 34 0 363 c0 335 -1 365 -18 381 -16 17 -47 18 -370 21
-320 2 -355 1 -387 -15z"></path>
<path d="M3403 5603 c-59 -8 -58 2 -63 -467 l-5 -431 -28 -80 c-89 -253 -303
-430 -567 -470 -25 -4 -56 -14 -69 -22 -22 -14 -23 -20 -18 -78 22 -234 210
-473 441 -560 98 -37 149 -46 256 -46 338 1 622 236 686 568 10 54 14 154 14
362 0 215 3 291 13 303 9 12 39 17 127 21 133 6 148 10 156 44 15 59 -82 343
-183 533 -67 127 -174 284 -211 308 -23 15 -57 17 -272 18 -135 1 -259 -1
-277 -3z"></path>
<path d="M5436 5557 c-27 -20 -23 -49 23 -188 58 -170 114 -404 142 -589 21
-135 24 -191 24 -435 0 -296 -9 -399 -51 -619 -79 -405 -238 -795 -468 -1146
-117 -178 -228 -313 -401 -486 -174 -175 -312 -287 -518 -424 -803 -535 -1866
-666 -2777 -341 -122 44 -160 50 -180 26 -16 -20 -16 -61 1 -81 8 -9 62 -58
120 -108 453 -389 990 -629 1589 -711 162 -22 488 -30 635 -16 449 44 896 181
1250 386 682 393 1222 1082 1414 1806 81 302 105 497 106 829 0 341 -32 577
-119 875 -123 419 -380 870 -669 1173 -62 64 -87 74 -121 49z"></path>
</g>
</svg>